/* XPM */
static char *_1cfb8ed25a942d98bc04a28028bcfc6qi1Lo3PaEkty2khg[] = {
/* columns rows colors chars-per-pixel */
"32 32 16 1 ",
"  c None",
". c #241604",
"X c #332006",
"o c #492E09",
"O c #57370A",
"+ c #69420D",
"@ c #7D4F0F",
"# c #EB0C0C",
"$ c #965F12",
"% c #B54B1D",
"& c #C26227",
"* c #D47E2D",
"= c #F15555",
"- c #FF9800",
"; c #FFB74D",
": c #FFCD83",
/* pixels */
"                                ",
"                ## ##           ",
"               ### #            ",
"                 #   #          ",
"            #  # # #  ##        ",
"        ## ## #    ## # ## #    ",
"     ### #### ##########    ##  ",
"     ##########  # #### ## ###  ",
"    ## #######       ### ### #  ",
"    ++O########OOO+++ #  ## #  #",
"   ++O##### ###OO#++ ## #   # ##",
"   ++O##########OO++## #    # ##",
"  %%%%%#### ###%%%%%#####  #####",
" --&&&&%# #%%%%&&&&&%###  ######",
" --***&&%%%%&&&&*&&&&%### ## #  ",
"----**&&&&&&###*****&&### #  #  ",
"----*******#*###---**&&## ###  #",
"----*****#***###------&&  ######",
";;--******#-#-##-##---&&&#### # ",
";;--******#--####-#-----&&##### ",
":;;-****----##-##-#------&&$$+  ",
":;;--------#--#--#--------&&$+++",
":;;;--------#----#---------&$$++",
":;;;;-----------#--;;--------$X.",
" :;;;;;;-------;;;;=;;-+-@O--$++",
" #:;;;;;;;;;;;;;### #;+o+--;-$$ ",
"   ::::::::## ## #####$+o-;     ",
"    # ##### ### ##### $$        ",
"   #### # #### #### ###         ",
"  #   #### ####### ## #         ",
"    ### ####  ##    ##          ",
"   ####### #### ## ##           "
};
