/* XPM */
static char *_61b91cf952d427e8b5670346334382cMk57DwJqKpHvHBJX[] = {
/* columns rows colors chars-per-pixel */
"32 32 35 1 ",
"  c None",
". c black",
"X c #241604",
"o c #2D1601",
"O c #332006",
"+ c #412001",
"@ c #492E09",
"# c #57370A",
"$ c #69420D",
"% c #6D6D6D",
"& c #8C0000",
"* c #B20000",
"= c #C90000",
"- c red",
"; c #FC1919",
": c #965F12",
"> c #B54B1D",
", c #C26227",
"< c #D47E2D",
"1 c #8E6D4E",
"2 c #B28036",
"3 c #FF9800",
"4 c #B28F5B",
"5 c #FFB74D",
"6 c #C9BD71",
"7 c #FFE74A",
"8 c gray51",
"9 c gray58",
"0 c gray61",
"q c #9D9D9D",
"w c gray73",
"e c #FFCD83",
"r c gray83",
"t c #E1E1E1",
"y c white",
/* pixels */
"          .www.                 ",
"         .w000w.                ",
"        .w00000w.               ",
"       .067777760.        --    ",
"       .078888870.        --    ",
"       .0677.7760.        --    ",
"       .000.1.000.        --    ",
"       .00.1+1.00.        --    ",
"        .00.+.00.               ",
"       .....+.....        --    ",
"      .wwwww+wwwww.       --    ",
"     .000%%.+.%%000.            ",
"    .000%..+++..%000.           ",
"    .%%%.ooooooo.%%%. ::        ",
"   4....4..rtr.. ...  :$@35     ",
"  e5222255.trt.55   55$@$3353:: ",
" e55555533.rtr.55555553$3y.33:$$",
"e555533333.trt.33335533333333:OX",
"e555333333.rtr.333333333333,::$$",
"e553333333.=-t-33333333333,,:$$$",
"e553<<<<33-3--33333333333,,::$  ",
"5533<<<<<<33;=3333333333,,      ",
"5533<<<<<<333-33333333,,,       ",
"3333<<<<<<-<<-33333333,,        ",
"3333<<<<2<=<<<<3333<<,,         ",
"3333<<,,,,,,,,<<<<<<,,          ",
" 33<<<,,>>>>,,,,<,,,,>          ",
" 33,,,,>  .>>>>,,,,,>           ",
"  >>>>>   .090.>>>>>            ",
"   $$#     .0*  ##$$            ",
"   $$#      ** ## $$            ",
"    $$#      & ###$$$           "
};
