/* XPM */
static char *ccef5c9b190d4c4ebc37ef635994aaa9ahkosJpoTbBJCBJS[] = {
/* columns rows colors chars-per-pixel */
"32 32 14 1 ",
"  c None",
". c #241604",
"X c #332006",
"o c #492E09",
"O c #57370A",
"+ c #69420D",
"@ c #7D4F0F",
"# c #965F12",
"$ c #B54B1D",
"% c #C26227",
"& c #D47E2D",
"* c #FF9800",
"= c #FFB74D",
"- c #FFCD83",
/* pixels */
"                                ",
"                                ",
"                                ",
"                                ",
"                                ",
"                                ",
"                                ",
"                                ",
"                      ##        ",
"   --------           #+o*=     ",
"  -=============     =+o+**=*## ",
" -======*******==== ==*+*@O**#++",
"-====**************==********#X.",
"-===***********************%##++",
"-==***********************%%#+++",
"-==*&&&&*****************%%##+  ",
"==**&&&&&&**************%%      ",
"==**&&&&&&************%%%       ",
"****&&&&&&&&&*********%%        ",
"****&&&&&&&&&&&****&&%%         ",
"****&&%%%%%%%%&&&&&&%%          ",
" **&&&%%$$$$%%%%&%%%%$          ",
" **%%%%$   $$$$%%%%%$           ",
"  $$$$$        $$$$$            ",
"   ++O          OO++            ",
"   ++O         OO ++            ",
"    ++O        OOO+++           ",
"                                ",
"                                ",
"                                ",
"                                ",
"                                "
};
