/* XPM */
static char *c638741c40fc4a3f8044b87439cc2b3b9vObeEJpTJeEPBEo[] = {
/* columns rows colors chars-per-pixel */
"32 32 18 1 ",
"  c None",
". c #241604",
"X c #332006",
"o c #492E09",
"O c #57370A",
"+ c #69420D",
"@ c #7D4F0F",
"# c #B71C1C",
"$ c #C62828",
"% c #965F12",
"& c #B54B1D",
"* c #C26227",
"= c #D47E2D",
"- c #8A7354",
"; c #967B56",
": c #FF9800",
"> c #FFB74D",
", c #FFCD83",
/* pixels */
"                                ",
"                                ",
"                                ",
"                                ",
"     #                          ",
"     #         #                ",
"     ##       ##                ",
"     ##      ##                 ",
"     #   #   #                  ",
"     ##   # ##                  ",
"    ;;#  #  #  ---;;;           ",
"   +++ # ##    OO ++            ",
"   +++    #     O+++            ",
"  ,,,,,        ,,,,,            ",
" ::>>>>,# $$,,,>>>>>,           ",
" :::::>$$$$#$>>>:>>>>,          ",
"::::::>#>$>>>>::::::>>          ",
":::::::::>>>:::::::::>>         ",
"::::::::$:::::::::::::>>        ",
"**::::::::::::::::::::>>>       ",
"**=::::::#::::::::::::::>>      ",
"&**===::$:$::::::::::::::>>%%+  ",
"&**=====::#:::::::::::::::>>%+++",
"&***==========:::::=====:::>%%++",
"&****==============**========%X.",
" &******=======**** **=+=@O==%++",
"  &*************     *+o+==*=%% ",
"   &&&&&&&&           %+o=*     ",
"                      %%        ",
"                                ",
"                                ",
"                                "
};
