/* XPM */
static char *result[] = {
/* columns rows colors chars-per-pixel */
"32 32 16 1 ",
"  c black",
". c #134207",
"X c #244915",
"o c #33691E",
"O c red",
"+ c #FF5722",
"@ c #719662",
"# c #9E8703",
"$ c #FF9800",
"% c #E3C204",
"& c #FFC107",
"* c #FFEB3B",
"= c #EBD450",
"- c #F1E185",
"; c white",
": c None",
/* pixels */
"::::::::::::::::::::::::::::::::",
"::::::::::::::::::::::::::::::::",
"::::::::::::::::::::::::::::::::",
"::::::::::::::::::::::::::::::::",
"::::::::::::::::::::::::::::::::",
"::::::::::::::::::::::::::::::::",
":::::::::: : ::::::::  :::::::::",
"::::::::: X X   :    o@ ::::::::",
"::::::::  oooooo .... o ::::::::",
"::::::: oo;;ooXoo ... oo  ::::::",
"::::::: oo ;oooooo .. oo@o :::::",
":::::: XoooX &ooXoo   o@oo@ ::::",
":::::: oooX : &oooooo ooooo ::::",
"::::&**    :: &oooXoXo@oo@oo :::",
"::&&+$&::::: &&oXooXoooooo@o :::",
":*$++&*::::: &&ooooXo @oooooo ::",
":&O+O*:::::: &&ooXooo  o@@ooo ::",
":*+&$*:::::: &&ooooo  .  oo@o ::",
"::*&*:::::: o&ooXXoXo  ..   o *:",
":::::::::::: &&oooooo :  . o &*:",
"::::::::::: &&&&oXoXoo  . :  +::",
"::::::::::: &&&&oooooX : :: X ::",
"::::::::::: &&&&ooXXoo ::: oo ::",
"::::::::::: $$&&oXooXoo   Xo :::",
":::::::::::  $$$ooooooXoooo :%::",
"::::::-%=::: oo   oo  ooXo :::::",
"::::=%:=::: ooo  ooo :    ::::::",
":::::-::::%#   #:   :%:#::::::::",
":::::::::::::##:::::::%-:::::::%",
"::::::::::::::::::::=::::%::::::",
"::::::::::::::::::::::::::::::::",
"::::::::::::::::::::::::::::::::"
};
