/* XPM */
static char *result[] = {
/* columns rows colors chars-per-pixel */
"32 32 6 1 ",
"  c #5A5A59",
". c #676767",
"X c gray43",
"o c #3818B8",
"O c #F7C363",
"+ c gray54",
/* pixels */
"XXXXOoOooooooooooooooooooOoOXXX ",
"XXXXOoOooooooooooooooooooOoOXXX ",
"XXXXOoOooooooooOOooooooooOoOXXX ",
" ...OoOooooooooOOooooooooOoO... ",
"    OoOoooooooOOOOoooooooOoO    ",
"++ +OoOoooooooOOOOoooooooOoO++++",
"XX XOoOooooooOOOOOOooooooOoOXXXX",
"XX  OoOoooooooOOOOoooooooOoOXXXX",
".. .OoOoooooooOOOOoooooooOoO....",
"    OoOooOOOoooOOoooOOOooOoO    ",
"++++OoOoOOOOoooOOoooOOOOoOoO++ +",
"XXXXOoOoOOoOOooOOooOOoOOoOoOXX X",
"XXXXOoOooOooOooOOooOooOooOoOXX X",
"....OoOoooooOooOOooOoooooOoO.. .",
"    OoOooooOOOOOOOOOOooooOoO    ",
"++ +OoOooooOOOOOOOOOOooooOoO++++",
"XX XOoOooooooooOOooooooooOoOXXXX",
"XX XOoOoooooooOOOOoooooooOoOXXXX",
".. .OoOooooOOOOOOOOOOooooOoO....",
"    OoOoooooOOOOOOOOoooooOoO    ",
"++++OoOoooooooOOOOoooooooOoO+++ ",
"XXXXXOoOooooooOOOOooooooOoOXXXX ",
"XXXXX OoOooooooOOooooooOoOXXXXX ",
"..... .OoOooooooooooooOoO...... ",
"        OoOooooooooooOoO        ",
"+ +++++++OoOooooooooOoO+++++ +++",
"X XXXXXXX OoOooooooOoO XXXXX XXX",
"X XXXXXXX XOoOooooOoOX XXXXX XXX",
". ....... ..OoOOOOoO.  ..... ...",
"             OooooO             ",
"++++++ ++++++ OOOO+ ++++ ++++++ ",
"XXXXXX XXXXXX XXXXX XXXX XXXXXX "
};
