/* XPM */
static char *result[] = {
/* columns rows colors chars-per-pixel */
"32 32 29 1 ",
"  c black",
". c #2C2C2B",
"X c #3F3F3E",
"o c #006228",
"O c #2F7032",
"+ c gray30",
"@ c #5A5A59",
"# c #676767",
"$ c gray43",
"% c #8F6557",
"& c #008B3A",
"* c #43A047",
"= c #00C853",
"- c #4DD887",
"; c #40C4FF",
": c #59CCFF",
"> c #6ED2FF",
", c gray54",
"< c #BCEAFF",
"1 c #CCEFFF",
"2 c #E7F8FF",
"3 c #EDF9FF",
"4 c #F7FCFF",
"5 c #F8FDFF",
"6 c #F9FDFF",
"7 c #FBFEFF",
"8 c #FCFEFF",
"9 c #FEFFFF",
"0 c white",
/* pixels */
"$$$$$$@$$$$$$@$@$$$@$$$$@$$$$$$@",
"$$$$$@$$$$$$$@$$@$$@$$$$@$$$$$$@",
"$$$$$@$$$$$$@XXXXX$@$$$$@$$$$$$@",
"@####@######XX;;;XX@####@######@",
"@@@@@@@@@XXXX;;;;;XXXX@@@@@@@@@@",
",,@,,,,,XX00<;;;;;;;0XX,,,,@,,,,",
"$$@$$XXXX00;;;;;;;;000XXXX$@$$$$",
"$$@@XX%0003:;;;;;;:>00000XX@$$$$",
"##@#..%67582;;;;;<2220000..@####",
"@@@@XX%;>:24<;;;;;;<49000XX@@@@@",
",,,,XX%;;;;;;;;;;;;;;:>16XX,,,@,",
"$$$$..%;;;;;;;;;;;;;;;;;;..$$$@$",
"$$$$XX%;;;;;;;;;;;;;;;;;;XX$$$@$",
"####XX%;;;;;;;;;;;;;;;;;;XX###@#",
"@@@@..%;;;;;;;;;;;;;;;;;;..@@@@@",
",,@,XX+;;;;;;;;;;;;;;;;;;XX@,,,,",
"$$@$XX+;;;;;;;;;;;;;;;;;;XX@$$$$",
"$$@$.. ;;;;;;;;;;;;;;;;;;..@$$$$",
"##@#XX%;;;;;;;;;;;;;;;;;;XX@####",
"@@@@XX%;;;;;;;;;;;;;;;;;;XX@@@@@",
",,,,..%;;-----;;;;;;;;;;;..,,,,@",
"$$$$XX+-----==&&&&&;;;;;;XX$$$$@",
"$$$$XX+=-----=====&&&&&&;XX$$$$@",
"####.. ===----=====&&&&&&..####@",
"@@@@XX%====-------====&&&XX@@@@@",
",@,,XX%======--------====XX,@,,,",
"$@$$..%=========---------..$@$$$",
"$@$$XX%oooooo=====-------XX$@$$$",
"#@##XX%Oooo=====*********XX#@###",
"@@@@..%******************..@@@@@",
",,,,XX%******************XX,,,,@",
"$$$$XX%******************XX$$$$@"
};
