/* XPM */
static char *_0eb4b0b12794781ecdfea5976dc0db8eLYKrq5fMYTMXBP5[] = {
/* columns rows colors chars-per-pixel */
"32 32 3 1 ",
"  c #494949",
". c #5A5A59",
"X c #696967",
/* pixels */
"................................",
"................................",
"................................",
"................................",
"................................",
".............   ................",
".............   ................",
".............  .................",
".....X   .......................",
".....X   .......................",
".....X   .....................XX",
".....X   .....................XX",
".............. .................",
"................................",
"................................",
"........................... ....",
"................................",
"....................X...........",
"................................",
"............................... ",
"..............................X ",
"..............................X ",
"................................",
"................................",
"................................",
"................................",
"................................",
"................................",
"................................",
"................................",
"................................",
"................................"
};
